<svg width="29" height="17" viewBox="0 0 29 17" fill="none" xmlns="http://www.w3.org/2000/svg">
<path fill-rule="evenodd" clip-rule="evenodd" d="M28.3346 1.15113C28.5362 0.487584 28.3346 0 27.3752 0H24.2026C23.3959 0 23.024 0.421199 22.8223 0.885652C22.8223 0.885652 21.2088 4.76737 18.9232 7.28875C18.1839 8.01866 17.8477 8.25095 17.4444 8.25095C17.2427 8.25095 16.9401 8.01866 16.9401 7.35517V1.15113C16.9401 0.354875 16.7167 0 16.0444 0H11.0588C10.5547 0 10.2515 0.369556 10.2515 0.719804C10.2515 1.47464 11.3943 1.64872 11.5121 3.77207V8.38367C11.5121 9.39469 11.3271 9.57804 10.9237 9.57804C9.84821 9.57804 7.23197 5.679 5.6803 1.21746C5.37621 0.350285 5.07121 0 4.26038 0H1.08776C0.181303 0 0 0.421199 0 0.885652C0 1.71511 1.07559 5.82905 5.00811 11.27C7.62978 14.9857 11.3235 17 14.6846 17C16.7014 17 16.9509 16.5527 16.9509 15.7821V12.9737C16.9509 12.079 17.1419 11.9004 17.7805 11.9004C18.251 11.9004 19.0577 12.1327 20.94 13.9242C23.0912 16.0475 23.4458 17 24.6557 17H27.8284C28.7348 17 29.188 16.5527 28.9266 15.6697C28.6404 14.7899 27.6135 13.5133 26.2507 11.9999C25.5112 11.1373 24.402 10.2084 24.0658 9.74379C23.5953 9.14673 23.7298 8.88129 24.0658 8.35052C24.0658 8.35052 27.9313 2.97581 28.3346 1.15113Z" fill="#025EC7"/>
</svg>
