<svg width="960" height="151" viewBox="0 0 960 151" fill="none" xmlns="http://www.w3.org/2000/svg">
<g clip-path="url(#clip0_277_321)">
<path d="M951.918 81.3129C957.737 87.0919 960 93.2107 960 103.069C960 133.663 946.098 144.881 906.008 146.921L879.173 148.62V76.5538V4.82712H894.692C903.098 4.82712 915.384 6.5268 921.85 8.22649C928.316 10.2661 936.722 15.7051 940.602 20.8042C948.361 31.3422 949.331 52.7582 941.895 64.3161C938.339 69.7551 938.015 72.8145 940.279 72.8145C942.542 72.8145 947.715 76.5538 951.918 81.3129ZM912.797 127.204C930.579 127.204 941.572 118.706 941.572 105.109C941.572 89.4714 930.903 83.0126 905.685 83.0126H890.715L897.181 88.3836C898.572 96.882 898.572 104.021 898.572 113.879V127.204H912.797ZM910.534 65.3359C924.76 63.9761 933.166 52.0784 929.933 38.4809C927.023 26.923 907.301 17.4048 900.835 24.2035C899.542 25.2233 898.572 35.4214 898.572 46.2994V66.3557L910.534 65.3359Z" fill="#D6624B"/>
<path d="M816.128 11.2859C839.407 22.1639 856.542 49.6988 856.542 75.8739C856.542 103.409 833.264 137.063 809.339 143.861C779.271 152.7 751.143 145.221 731.421 123.465C718.166 108.508 714.286 97.29 714.286 72.8145C714.286 56.1576 715.903 50.7186 724.955 36.7812C738.858 15.0252 757.286 4.82712 783.474 4.82712C795.437 4.82712 808.369 7.54661 816.128 11.2859ZM831.324 97.6299C851.369 50.0387 803.519 4.14724 759.226 28.6227C729.482 44.9397 723.985 84.0324 746.94 111.907C771.512 141.142 816.128 133.663 831.324 97.6299Z" fill="#DB7447"/>
<path d="M692.301 4.82712L691.008 64.996C690.038 98.3098 688.421 128.224 687.128 131.624C680.015 147.601 644.451 153.38 628.932 140.462C617.617 130.944 617.617 120.406 629.256 120.406C633.782 120.406 640.572 123.125 643.805 126.185C651.887 133.663 666.113 128.564 669.346 117.006C670.639 112.247 671.609 85.0522 671.932 56.4975L672.256 4.82712H682.278H692.301Z" fill="#E28F41"/>
<path d="M507.692 4.82712L506.722 14.0054L505.752 23.5237L470.511 24.5435C436.466 24.5435 438.083 22.6625 446.166 28.8947C451.015 32.634 449.173 39.5007 449.173 47.6592V59.217H475.038H500.902V69.4151V79.6133H475.038H449.173V103.409V127.204H478.271H507.369V137.403V147.601H468.572H429.775V76.2139V4.82712H468.895H507.692Z" fill="#EBAE3A"/>
<path d="M608.143 3.39938L607.173 12.5777L606.203 22.0959L570.963 23.1157C536.918 23.1157 538.534 21.2347 546.617 27.4669C551.467 31.2062 549.624 38.073 549.624 46.2314V57.7893H575.489H601.354V67.9874V78.1855H575.489H549.624V101.981V125.777H578.722H607.82V135.975V146.173H569.023H530.226V74.7861V3.39938H569.346H608.143Z" fill="#E8A33C"/>
<path d="M409.081 141.482C410.375 146.581 408.758 147.601 400.029 147.601H389.036L381.6 106.808C377.397 84.3724 373.194 66.6957 371.901 67.3755C370.931 68.0554 361.878 87.4318 352.179 109.868C342.48 132.643 333.751 151 332.457 151C331.487 151 322.435 131.964 312.089 108.508C301.42 85.0523 292.367 66.3557 291.72 67.0356C291.074 67.7155 287.517 85.7321 283.314 107.148L275.878 145.901L265.209 146.921C256.157 147.941 254.54 147.261 255.833 141.822C256.803 138.422 262.946 105.448 269.735 68.7353C276.848 31.6822 283.638 2.78752 284.931 4.14727C286.224 5.50702 297.217 29.3026 309.826 57.1774L332.457 108.168L350.563 67.3755C360.585 45.2796 371.254 21.1441 373.841 14.0054C376.751 6.86677 379.984 2.10765 381.277 3.80733C382.57 5.16708 389.036 35.4215 395.503 71.1149C401.969 106.468 408.112 138.422 409.081 141.482Z" fill="#F0BE36"/>
<path d="M121.685 117.271L122.059 117.693L130.787 127.549C130.787 127.55 130.788 127.55 130.788 127.551C133.38 130.447 135.651 133.175 137.275 135.267C138.087 136.313 138.741 137.205 139.195 137.882C139.421 138.22 139.603 138.513 139.73 138.749C139.793 138.866 139.848 138.978 139.888 139.08C139.922 139.17 139.967 139.301 139.967 139.44C139.967 139.744 139.749 139.917 139.657 139.98C139.541 140.059 139.401 140.119 139.265 140.166C138.986 140.263 138.601 140.351 138.138 140.432C137.206 140.596 135.875 140.746 134.252 140.874C131.003 141.13 126.544 141.3 121.685 141.3C116.825 141.3 112.366 141.13 109.117 140.874C107.495 140.746 106.163 140.596 105.231 140.432C104.768 140.351 104.383 140.263 104.104 140.166C103.968 140.119 103.828 140.059 103.713 139.98C103.621 139.917 103.403 139.744 103.403 139.44C103.403 139.301 103.447 139.17 103.482 139.081C103.521 138.979 103.575 138.867 103.638 138.75C103.765 138.515 103.945 138.223 104.169 137.888C104.617 137.216 105.262 136.335 106.053 135.31C107.637 133.261 109.827 130.617 112.258 127.891L121.685 117.271ZM121.685 117.271L121.311 117.693L112.259 127.89L121.685 117.271ZM201.712 7.01618L201.716 7.02965L201.721 7.04286C202.668 9.5315 202.86 11.6255 202.364 13.3675C201.871 15.0989 200.677 16.5562 198.699 17.7388C194.704 20.1273 187.634 21.3223 177.294 21.3223H157.572H156.431L157.204 22.1611L167.219 33.0302C167.22 33.0317 167.221 33.0331 167.223 33.0346C174.964 41.8523 179.35 47.9891 182.027 57.2299C184.715 66.509 185.685 78.9389 186.493 100.367C187.14 118.057 187.381 128.133 186.899 133.789C186.657 136.63 186.238 138.265 185.66 139.185C185.381 139.63 185.071 139.898 184.728 140.06C184.378 140.226 183.958 140.3 183.437 140.3C180.232 140.3 177.448 143.259 177.44 146.565C177.37 147.82 177.3 148.788 177.222 149.479C177.022 148.78 176.782 147.781 176.489 146.473C176.152 144.881 175.479 143.372 174.668 142.25C174.262 141.688 173.812 141.21 173.338 140.868C172.867 140.527 172.342 140.3 171.798 140.3C171.266 140.3 170.691 140.518 170.133 140.84C169.566 141.167 168.969 141.628 168.384 142.178C167.215 143.275 166.05 144.762 165.216 146.34C164.405 147.788 163.808 148.855 163.359 149.561C163.176 149.848 163.028 150.06 162.906 150.209C162.881 150.094 162.856 149.947 162.831 149.764C162.739 149.068 162.679 148.012 162.598 146.565C162.596 144.978 162.261 143.454 161.65 142.307C161.044 141.168 160.1 140.3 158.865 140.3C157.778 140.3 156.84 141.188 156.208 142.295C155.557 143.436 155.132 144.967 155.132 146.579C155.132 147.86 155.111 148.782 155.03 149.386C154.997 149.635 154.957 149.799 154.92 149.9C154.898 149.886 154.871 149.869 154.841 149.846C154.688 149.733 154.488 149.542 154.231 149.256C153.718 148.687 153.045 147.813 152.154 146.622C150.477 144.329 148.593 142.969 145.818 142.475C143.091 141.99 139.535 142.349 134.52 143.369C127.484 144.713 115.269 144.38 107.226 143.028C101.257 141.841 97.3732 141.395 94.563 141.88C93.1402 142.125 91.9851 142.61 90.9719 143.356C89.9658 144.097 89.1213 145.081 88.2968 146.293C87.3266 147.654 86.5918 148.655 86.0322 149.315C85.7513 149.647 85.5294 149.875 85.3564 150.016C85.3033 150.059 85.2608 150.089 85.2278 150.111C85.1882 150.006 85.146 149.835 85.1109 149.572C85.0252 148.931 85.0042 147.946 85.0042 146.579C85.0042 144.987 84.669 143.458 84.0564 142.307C83.4495 141.168 82.5061 140.3 81.2711 140.3C80.1841 140.3 79.2457 141.188 78.6141 142.295C77.9626 143.436 77.538 144.967 77.538 146.579C77.538 147.863 77.5168 148.779 77.4276 149.361C77.3964 149.565 77.3608 149.697 77.33 149.779C77.275 149.746 77.2044 149.695 77.1167 149.619C76.9219 149.452 76.6777 149.196 76.3735 148.837C75.7668 148.122 74.9703 147.055 73.92 145.611C73.9187 145.609 73.9174 145.607 73.9161 145.605L73.9045 145.588C72.8701 144.082 72.0705 142.918 71.407 142.139C71.0724 141.746 70.7517 141.425 70.4318 141.204C70.1082 140.98 69.7542 140.836 69.3676 140.853C68.9805 140.87 68.6413 141.045 68.3406 141.297C68.0437 141.546 67.7567 141.894 67.4637 142.315C66.8829 143.149 66.2061 144.378 65.3312 145.967L65.316 145.995C65.3158 145.995 65.3156 145.996 65.3154 145.996C64.5061 147.443 63.8895 148.508 63.4129 149.216C63.1737 149.571 62.9826 149.817 62.8318 149.971C62.811 149.992 62.7922 150.01 62.7751 150.026C62.7362 149.92 62.6936 149.764 62.652 149.541C62.5329 148.905 62.4535 147.922 62.3726 146.564C62.37 144.958 61.946 143.428 61.249 142.282C60.5623 141.154 59.5464 140.31 58.3366 140.3C58.3273 140.294 58.3109 140.28 58.2872 140.254C58.2161 140.175 58.1241 140.026 58.0237 139.78C57.8241 139.29 57.6396 138.535 57.4782 137.524C57.1568 135.511 56.9441 132.599 56.8306 129.035C56.6039 121.915 56.7751 112.262 57.2396 102.155C57.704 92.0501 58.4611 81.5009 59.4045 72.5893C60.3488 63.6694 61.4747 56.4448 62.6646 52.9315C64.5836 48.2335 70.3604 39.1187 76.1372 33.0449L76.1372 33.0449L76.1426 33.0391L86.1652 22.1611L86.938 21.3223H85.7974H64.4591C53.4782 21.3223 45.8295 20.0443 41.3811 17.6022C39.1704 16.3886 37.7875 14.9082 37.1485 13.1871C36.5096 11.4659 36.586 9.42669 37.4467 7.03896C37.716 6.3343 38.32 5.64888 39.4711 5.00327C40.6284 4.35416 42.3038 3.76574 44.6482 3.24749C49.3359 2.21122 56.5833 1.47931 67.4298 1.03333C89.1136 0.141745 125.066 0.396203 183.425 1.58601C189.565 1.75596 193.87 2.18081 196.792 3.0525C199.693 3.91815 201.134 5.19265 201.712 7.01618ZM163.005 150.515C163.006 150.515 163.003 150.513 162.999 150.505C163.003 150.511 163.005 150.514 163.005 150.515ZM58.3457 140.306C58.3455 140.306 58.3444 140.305 58.3424 140.304C58.3449 140.305 58.346 140.306 58.3457 140.306ZM182.476 5.6852H182.467C178.939 5.6852 175.33 5.34781 172.367 4.84247C170.885 4.5898 169.571 4.29633 168.514 3.98468C167.443 3.66896 166.68 3.34725 166.265 3.05628L166.259 3.05197L166.253 3.04786C165.556 2.59036 164.863 2.34998 164.205 2.45096C163.526 2.55512 163.009 3.00127 162.637 3.63807C162.269 4.26668 162.013 5.12181 161.847 6.15924C161.68 7.20289 161.598 8.4633 161.598 9.92451C161.598 11.7203 161.679 13.1951 161.867 14.3696C162.054 15.5357 162.353 16.4566 162.826 17.1035C163.32 17.7788 163.986 18.1291 164.802 18.1681C165.579 18.2053 166.466 17.9601 167.454 17.529C168.858 17.0407 171.549 16.538 174.806 16.1576C178.062 15.7771 181.842 15.5236 185.376 15.5236C189.77 15.5236 192.957 14.9906 194.979 14.1523C195.989 13.7339 196.75 13.222 197.213 12.6219C197.691 12.0017 197.84 11.2942 197.613 10.5808C197.397 9.89692 196.856 9.27325 196.098 8.72567C195.333 8.17377 194.306 7.66927 193.04 7.23649C190.507 6.37054 186.957 5.77095 182.476 5.6852ZM62.1008 79.0367L75.356 72.2382C81.3537 69.1703 84.7374 67.6952 87.971 67.4904C91.1942 67.2863 94.3234 68.3409 99.8341 70.5563C104.372 72.4305 107.825 73.4752 110.695 73.6938C113.591 73.9145 115.882 73.2927 118.077 71.8729L118.084 71.8679L118.092 71.8625C119.991 70.5316 121.494 70.0071 122.787 70.0826C124.067 70.1574 125.249 70.8277 126.495 72.1376C127.258 72.9394 128.062 73.5396 128.971 73.9128C129.883 74.287 130.873 74.4214 131.99 74.331C134.198 74.1525 136.942 73.0903 140.661 71.2199L140.671 71.215L140.68 71.2097C150.82 65.546 163.193 67.1952 172.422 75.5543C174.288 77.43 175.903 78.6596 177.253 79.1709C177.936 79.4296 178.588 79.5189 179.185 79.3778C179.793 79.2341 180.284 78.8651 180.656 78.3221C181.375 77.274 181.684 75.5344 181.678 73.2314C181.673 70.9014 181.345 67.8953 180.696 64.2273L180.694 64.218L180.692 64.2088C179.05 56.6109 173.169 46.3356 164.407 36.7824C164.407 36.7821 164.407 36.7818 164.407 36.7815L150.506 21.486L150.357 21.3223H150.136L121.361 21.3223L121.354 21.3224C120.272 21.3377 119.232 21.3519 118.231 21.3656C108.193 21.5028 102.146 21.5855 97.8069 22.2362C92.9753 22.9608 90.2299 24.3941 86.4606 27.3235L86.4604 27.3233L86.45 27.3319C81.2049 31.6404 75.752 39.1838 71.614 47.0749C67.5003 54.9198 64.633 63.2094 64.6059 69.1064L61.3998 78.4292L60.996 79.6033L62.1008 79.0367ZM132.306 83.0155L132.306 83.0162C126.439 89.5278 122.801 97.4606 122.801 103.407C122.801 110.549 126.847 118.314 132.517 124.275C138.183 130.233 145.58 134.501 152.399 134.501C159.532 134.501 166.929 130.413 172.524 124.53C178.121 118.645 181.997 110.879 181.997 103.407C181.997 95.7704 179.015 89.1939 172.483 82.3264C165.957 75.4651 159.123 72.0544 152.268 72.1855C145.415 72.3165 138.667 75.9852 132.306 83.0155ZM158.376 14.1409L158.381 14.1242L158.384 14.1071C158.717 12.5338 158.88 10.5427 158.88 8.64975C158.88 6.76279 158.718 4.92698 158.378 3.67453L158.366 3.63134L158.347 3.59092C158.217 3.31723 158.075 3.0787 157.913 2.90547C157.76 2.74076 157.505 2.54753 157.167 2.59307C156.841 2.63701 156.641 2.87828 156.529 3.0635C156.409 3.2632 156.316 3.51937 156.24 3.80445C155.939 4.93686 155.779 7.03614 155.779 9.92451C155.779 11.2928 155.819 12.4549 155.897 13.3763C155.973 14.283 156.087 15.0008 156.254 15.452C156.297 15.5686 156.35 15.6829 156.415 15.784C156.478 15.8819 156.571 15.9954 156.708 16.0742C156.86 16.1618 157.04 16.191 157.221 16.1421C157.384 16.098 157.506 16.0016 157.591 15.9146C157.757 15.7453 157.891 15.497 158.007 15.2238C158.129 14.9387 158.252 14.5771 158.376 14.1409ZM151.91 14.1409L151.915 14.1242L151.918 14.1071C152.251 12.5338 152.414 10.5427 152.414 8.64975C152.414 6.76279 152.252 4.92698 151.912 3.67453L151.9 3.63134L151.881 3.59092C151.75 3.31723 151.608 3.0787 151.447 2.90547C151.294 2.74076 151.038 2.54753 150.701 2.59307C150.375 2.63701 150.175 2.87828 150.063 3.0635C149.943 3.2632 149.85 3.51937 149.774 3.80445C149.472 4.93686 149.313 7.03614 149.313 9.92451C149.313 11.2928 149.353 12.4549 149.43 13.3763C149.507 14.283 149.621 15.0008 149.788 15.452C149.831 15.5686 149.883 15.6829 149.949 15.784C150.012 15.8819 150.105 15.9954 150.242 16.0742C150.394 16.1618 150.574 16.191 150.755 16.1421C150.918 16.098 151.04 16.0016 151.125 15.9146C151.29 15.7453 151.424 15.497 151.541 15.2238C151.663 14.9387 151.785 14.5771 151.91 14.1409ZM145.767 10.4672L145.762 10.4497L145.756 10.4326C145.603 10.0139 145.252 9.66817 144.836 9.37884C144.41 9.08268 143.857 8.80529 143.21 8.54395C141.913 8.02064 140.168 7.53419 138.133 7.09346C134.058 6.21098 128.751 5.49682 123.383 5.04955C118.015 4.60224 112.567 4.42035 108.211 4.60743C106.034 4.7009 104.115 4.88702 102.61 5.18268C101.857 5.33048 101.196 5.50795 100.651 5.72055C100.114 5.93032 99.6527 6.18899 99.3374 6.5205C98.5945 7.30158 98.014 8.03609 97.6239 8.72642C97.2347 9.41499 97.0169 10.0918 97.0483 10.7452C97.1141 12.1167 98.2314 13.0551 100.012 13.7083C101.817 14.3702 104.5 14.8201 108.117 15.1077C111.743 15.396 116.345 15.5236 122.008 15.5236C131.055 15.5236 137.162 15.2699 140.891 14.5804C142.745 14.2377 144.091 13.7747 144.915 13.1206C145.338 12.785 145.638 12.3873 145.784 11.9196C145.93 11.4528 145.908 10.963 145.767 10.4672ZM125.352 79.8594L125.361 79.8432L125.369 79.8263C125.912 78.6859 125.868 77.6054 125.171 76.8161C124.509 76.0665 123.366 75.7122 122.008 75.7122C120.482 75.7122 119.089 76.0677 118.061 76.7259C117.025 77.3888 116.335 78.3812 116.335 79.6116C116.335 80.5829 116.702 81.544 117.298 82.2667C117.894 82.9898 118.753 83.511 119.745 83.511C120.851 83.511 122 83.0317 122.978 82.361C123.96 81.6874 124.824 80.7841 125.352 79.8594ZM116.959 114.849L116.961 114.845C119.898 108.839 120.991 103.712 120.034 98.6404C119.08 93.581 116.102 88.655 111.066 83.0183C104.856 75.9751 97.7054 72.2354 90.5065 71.9309C83.3028 71.6262 76.1379 74.7651 69.9163 81.3066L69.9119 81.3114C57.4426 94.767 58.0911 113.445 71.5608 125.535C79.5785 132.76 88.3907 135.214 96.5031 133.255C104.605 131.299 111.901 124.97 116.959 114.849ZM93.7143 14.1409L93.7191 14.1242L93.7227 14.1071C94.0553 12.5338 94.2185 10.5427 94.2185 8.64975C94.2185 6.76279 94.0564 4.92698 93.716 3.67453L93.7043 3.63134L93.6851 3.59092C93.5549 3.31723 93.4128 3.0787 93.2518 2.90547C93.0986 2.74076 92.8428 2.54753 92.505 2.59307C92.179 2.63701 91.9793 2.87828 91.8676 3.0635C91.7472 3.2632 91.6543 3.51937 91.5784 3.80445C91.2768 4.93686 91.117 7.03614 91.117 9.92451C91.117 11.2928 91.1576 12.4549 91.2349 13.3763C91.311 14.283 91.4257 15.0008 91.5926 15.452C91.6357 15.5686 91.6878 15.6829 91.753 15.784C91.8161 15.8819 91.9094 15.9954 92.0461 16.0742C92.1981 16.1618 92.3787 16.191 92.5594 16.1421C92.7224 16.098 92.8446 16.0016 92.9296 15.9146C93.0948 15.7453 93.2289 15.497 93.3455 15.2238C93.4672 14.9387 93.5899 14.5771 93.7143 14.1409ZM87.2482 14.1409L87.253 14.1242L87.2566 14.1071C87.5891 12.5338 87.7523 10.5427 87.7523 8.64975C87.7523 6.76279 87.5902 4.92698 87.2499 3.67453L87.2381 3.63134L87.2189 3.59092C87.0888 3.31723 86.9467 3.0787 86.7856 2.90547C86.6324 2.74076 86.3766 2.54753 86.0388 2.59307C85.7128 2.63701 85.5131 2.87828 85.4014 3.0635C85.281 3.2632 85.1881 3.51937 85.1122 3.80445C84.8106 4.93686 84.6508 7.03614 84.6508 9.92451C84.6508 11.2928 84.6914 12.4549 84.7688 13.3763C84.8449 14.283 84.9595 15.0008 85.1264 15.452C85.1696 15.5686 85.2217 15.6829 85.2869 15.784C85.3499 15.8819 85.4432 15.9954 85.58 16.0742C85.7319 16.1618 85.9126 16.191 86.0932 16.1421C86.2562 16.098 86.3784 16.0016 86.4634 15.9146C86.6286 15.7453 86.7627 15.497 86.8793 15.2238C87.001 14.9387 87.1237 14.5771 87.2482 14.1409ZM181.997 130.602C181.997 128.706 181.833 126.979 181.626 125.72C181.524 125.092 181.408 124.568 181.293 124.193C181.236 124.009 181.173 123.839 181.102 123.706C181.068 123.642 181.019 123.562 180.951 123.492C180.892 123.43 180.748 123.303 180.527 123.303C180.398 123.303 180.281 123.339 180.195 123.373C180.103 123.408 180.009 123.456 179.917 123.51C179.733 123.617 179.521 123.766 179.291 123.945C178.827 124.305 178.248 124.817 177.595 125.439C176.289 126.683 174.663 128.393 173.039 130.272C171.588 131.882 170.501 133.131 169.797 134.094C169.445 134.576 169.175 135.005 169.003 135.386C168.834 135.759 168.733 136.144 168.8 136.513C168.872 136.913 169.123 137.197 169.452 137.386C169.763 137.565 170.163 137.671 170.609 137.741C171.503 137.881 172.777 137.901 174.384 137.901C176.865 137.901 178.796 137.381 180.102 136.15C181.414 134.913 181.997 133.052 181.997 130.602ZM80.8572 16.8259C81.0937 16.7015 81.2226 16.4729 81.2969 16.2979C81.3783 16.1061 81.437 15.8749 81.4807 15.6249C81.5687 15.1222 81.6095 14.4631 81.6095 13.7063C81.6095 12.1877 81.4449 10.2064 81.1183 8.14655C80.7906 6.07892 80.2075 4.4451 79.479 3.53557C79.1155 3.0817 78.6524 2.73153 78.1016 2.70598C77.544 2.68011 77.0696 2.99225 76.6962 3.46914C75.907 4.21465 75.2628 4.76595 74.4848 5.20193C73.7008 5.64122 72.7551 5.97729 71.3561 6.24662C68.5328 6.79015 63.9709 7.04468 55.3878 7.38523C50.4455 7.55568 46.9548 8.04593 44.8417 8.7262C43.7995 9.06169 43.0117 9.46775 42.5762 9.97223C42.3485 10.2359 42.2004 10.5465 42.1913 10.895C42.1822 11.2414 42.3121 11.5591 42.5162 11.8359C42.9095 12.3695 43.644 12.843 44.6049 13.2685C45.5832 13.7017 46.8634 14.1138 48.4241 14.4898C51.5469 15.2422 55.8405 15.8612 61.193 16.2023C66.2073 16.5425 70.9005 16.7978 74.4231 16.9255C76.1837 16.9893 77.6566 17.0215 78.7326 17.0161C79.2697 17.0134 79.715 17.0014 80.0505 16.9784C80.2178 16.967 80.3657 16.9523 80.4878 16.9331C80.5915 16.9168 80.7368 16.8892 80.8572 16.8259ZM68.9854 137.901C70.5921 137.901 71.866 137.881 72.7605 137.741C73.2067 137.671 73.6062 137.565 73.9173 137.386C74.2464 137.197 74.497 136.913 74.5695 136.513C74.6363 136.144 74.5353 135.759 74.3664 135.386C74.1943 135.005 73.9239 134.576 73.5719 134.094C72.8681 133.131 71.7815 131.882 70.3304 130.271C68.7063 128.393 67.0799 126.683 65.7739 125.439C65.1215 124.817 64.5421 124.305 64.0787 123.945C63.848 123.766 63.6362 123.617 63.4523 123.51C63.3604 123.456 63.2667 123.408 63.1746 123.373C63.0886 123.339 62.9717 123.303 62.8425 123.303C62.6216 123.303 62.4777 123.43 62.4185 123.492C62.3505 123.562 62.3016 123.642 62.2671 123.706C62.1961 123.839 62.1333 124.009 62.0766 124.193C61.9614 124.568 61.8459 125.092 61.7429 125.72C61.5364 126.979 61.3726 128.706 61.3726 130.602C61.3726 133.052 61.955 134.913 63.2674 136.15C64.5735 137.381 66.5042 137.901 68.9854 137.901Z" stroke="#E8AD27"/>
<path d="M163.019 109.22C166.963 109.22 170.205 110.616 172.238 112.8C174.264 114.975 175.122 117.963 174.263 121.249C173.384 124.61 171.629 127.403 169.555 129.352C167.475 131.307 165.11 132.38 163.019 132.38C160.927 132.38 158.563 131.307 156.482 129.352C154.409 127.403 152.653 124.61 151.775 121.249C150.916 117.963 151.774 114.975 153.8 112.8C155.833 110.616 159.075 109.22 163.019 109.22Z" stroke="#E8AD27"/>
<path d="M102.642 109.22C106.585 109.22 109.827 110.616 111.861 112.8C113.887 114.975 114.744 117.963 113.886 121.249C113.007 124.61 111.252 127.403 109.178 129.352C107.097 131.307 104.733 132.38 102.642 132.38C100.55 132.38 98.1855 131.307 96.1051 129.352C94.0314 127.403 92.2759 124.61 91.3975 121.249C90.5386 117.963 91.3964 114.975 93.4222 112.8C95.4555 110.616 98.6976 109.22 102.642 109.22Z" stroke="#E8AD27"/>
</g>
<defs>
<clipPath id="clip0_277_321">
<rect width="960" height="151" fill="white"/>
</clipPath>
</defs>
</svg>
