<svg width="29" height="30" viewBox="0 0 29 30" fill="none" xmlns="http://www.w3.org/2000/svg">
<path d="M22.5872 20.6425L22.5624 20.6767L22.5919 20.7069L28.4147 26.6689C28.4148 26.669 28.4149 26.6691 28.415 26.6691C29.1286 27.4188 29.1279 28.6348 28.3989 29.3668L28.3977 29.368C28.0419 29.7499 27.5564 29.9329 27.0866 29.9329C26.6178 29.9329 26.1316 29.7335 25.7748 29.3672L19.9348 23.3706L19.9044 23.3394L19.8694 23.3652C17.8144 24.8797 15.2957 25.7814 12.5783 25.7814C5.66913 25.7814 0.05 20.0135 0.05 12.9157C0.05 5.81793 5.66913 0.05 12.5783 0.05C19.4875 0.05 25.1066 5.81793 25.1066 12.9157C25.1066 15.809 24.1619 18.481 22.5872 20.6425ZM3.77674 12.9157C3.77674 17.8965 7.72445 21.9521 12.5783 21.9521C17.4322 21.9521 21.3799 17.8965 21.3799 12.9157C21.3799 7.93492 17.4322 3.87939 12.5783 3.87939C7.72445 3.87939 3.77674 7.93492 3.77674 12.9157Z" fill="black" stroke="black" stroke-width="0.1"/>
</svg>
