<svg width="21" height="21" viewBox="0 0 21 21" fill="none" xmlns="http://www.w3.org/2000/svg">
<path d="M1.25124 8.8572C1.25124 8.8572 10.2467 4.39607 13.3603 2.82445C14.5583 2.19416 18.6127 0.180519 18.6127 0.180519C18.6127 0.180519 20.4808 -0.70352 20.3252 1.44109C20.271 2.32513 19.8581 5.4029 19.4385 8.73441C18.8158 13.4493 18.1389 18.6062 18.1389 18.6062C18.1389 18.6062 18.0374 20.055 17.1507 20.3006C16.264 20.5543 14.8088 19.4165 14.5515 19.171C14.3417 18.9827 10.6528 16.1505 9.29911 14.7672C8.9336 14.3906 8.52072 13.6376 9.35326 12.7535C11.2214 10.6826 13.4618 8.10413 14.8088 6.46702C15.4315 5.71395 16.0542 3.95406 13.455 6.09048C9.76614 9.16825 6.12463 12.0659 6.12463 12.0659C6.12463 12.0659 5.2921 12.6962 3.73532 12.1314C2.17854 11.5666 0.357782 10.8135 0.357782 10.8135C0.357782 10.8135 -0.880873 9.86402 1.25124 8.8572Z" fill="#0088CC"/>
</svg>
