<svg width="21" height="21" viewBox="0 0 21 21" fill="none" xmlns="http://www.w3.org/2000/svg">
<path d="M0.666992 20.3351L2.13102 14.8942C1.30611 13.4043 0.867646 11.7364 0.867646 10.0463C0.867646 4.50909 5.37863 0.00219727 10.93 0.00219727C16.4815 0.00219727 20.9999 4.50909 20.9999 10.0463C20.9999 15.5836 16.4815 20.0905 10.93 20.0905C9.26537 20.0905 7.61555 19.6679 6.14409 18.8748L0.666992 20.3351ZM6.41906 16.8289L6.76091 17.0365C8.02429 17.7925 9.46602 18.1854 10.93 18.1854C15.4336 18.1854 19.0974 14.531 19.0974 10.0389C19.0974 5.54686 15.4336 1.89242 10.93 1.89242C6.42649 1.89242 2.76271 5.54686 2.76271 10.0389C2.76271 11.5215 3.17888 12.9817 3.9592 14.2641L4.16728 14.6125L3.3498 17.6517L6.41906 16.8289Z" fill="#039800"/>
<path fill-rule="evenodd" clip-rule="evenodd" d="M14.6757 11.4399C14.2595 11.1952 13.7244 10.9136 13.234 11.1137C12.8624 11.2694 12.6171 11.8476 12.3793 12.1515C12.253 12.3071 12.1043 12.3294 11.9186 12.2552C10.514 11.6993 9.4364 10.7579 8.66351 9.46809C8.52974 9.26795 8.55204 9.11228 8.71553 8.92697C8.95335 8.6527 9.24318 8.34137 9.31006 7.97074C9.37695 7.6001 9.19859 7.16276 9.04252 6.8366C8.8493 6.41408 8.62635 5.81366 8.20275 5.57645C7.80145 5.34666 7.28866 5.47267 6.94681 5.75436C6.34485 6.24359 6.05502 6.99968 6.06988 7.75577C6.06988 7.97074 6.09961 8.1857 6.15163 8.39326C6.27053 8.8899 6.50091 9.3569 6.76102 9.80166C6.95424 10.1352 7.16976 10.4614 7.40014 10.7727C8.15073 11.7882 9.08711 12.6778 10.1721 13.3375C10.7146 13.6711 11.2943 13.9602 11.8963 14.1603C12.5725 14.3827 13.1745 14.6125 13.9102 14.479C14.6757 14.3308 15.4337 13.8638 15.731 13.1225C15.8202 12.9076 15.8647 12.6629 15.8127 12.4332C15.7087 11.9513 15.0621 11.6696 14.6757 11.4399Z" fill="#039800"/>
</svg>
