<svg width="25" height="27" viewBox="0 0 25 27" fill="none" xmlns="http://www.w3.org/2000/svg">
<path d="M2.43903 27C1.76829 27 1.1939 26.7426 0.715856 26.2278C0.237807 25.713 -0.000810938 25.0934 2.07048e-06 24.3691V5.9525C2.07048e-06 5.22899 0.239026 4.6094 0.717075 4.09374C1.19512 3.57808 1.76911 3.32068 2.43903 3.32156H13.3232L10.8841 5.9525H2.43903V24.3691H19.5122V15.2265L21.9512 12.5956V24.3691C21.9512 25.0926 21.7122 25.7122 21.2341 26.2278C20.7561 26.7435 20.1821 27.0009 19.5122 27H2.43903ZM16.0671 4.07795L17.8049 5.91961L9.7561 14.6017V16.4762H11.4634L19.5427 7.76126L21.2805 9.60292L13.2012 18.3179C12.9776 18.5591 12.7183 18.7511 12.4232 18.8941C12.1281 19.037 11.8183 19.1081 11.4939 19.1072H8.53659C8.19106 19.1072 7.90122 18.9809 7.66707 18.7283C7.43293 18.4758 7.31626 18.1636 7.31707 17.7917V14.6017C7.31707 14.2509 7.37805 13.9163 7.5 13.598C7.62195 13.2797 7.79472 13.0003 8.01829 12.76L16.0671 4.07795ZM21.2805 9.60292L16.0671 4.07795L19.1159 0.789281C19.6037 0.263094 20.1882 0 20.8695 0C21.5508 0 22.1248 0.263094 22.5915 0.789281L24.2988 2.66382C24.7663 3.16809 25 3.78197 25 4.50548C25 5.22899 24.7663 5.84287 24.2988 6.34714L21.2805 9.60292Z" fill="black" fill-opacity="0.31"/>
</svg>
